<?xml version="1.0" encoding="utf-8"?>
<!-- Generator: Adobe Illustrator 16.0.0, SVG Export Plug-In . SVG Version: 6.00 Build 0)  -->
<!DOCTYPE svg PUBLIC "-//W3C//DTD SVG 1.1//EN" "http://www.w3.org/Graphics/SVG/1.1/DTD/svg11.dtd">
<svg version="1.1" id="Layer_1" xmlns:sketch="http://www.bohemiancoding.com/sketch/ns"
	 xmlns="http://www.w3.org/2000/svg" xmlns:xlink="http://www.w3.org/1999/xlink" x="0px" y="0px" width="1280px" height="800px"
	 viewBox="0 0 1280 800" enable-background="new 0 0 1280 800" xml:space="preserve">
<title>25-07-2015 - loading</title>
<desc>Created with Sketch.</desc>
<g sketch:type="MSPage">
	<g sketch:type="MSArtboardGroup">
		<path sketch:type="MSShapeGroup" d="M500.686,417.169c-7.083-10.502-21.429-13.213-32.041-6.055
			c-10.613,7.158-13.474,21.475-6.391,31.977c7.084,10.502,21.43,13.212,32.042,6.054S507.77,427.67,500.686,417.169z
			 M474.649,325.134c0.442-12.659-9.57-23.284-22.363-23.731c-12.794-0.447-23.522,9.454-23.965,22.114
			c-0.442,12.659,9.57,23.284,22.363,23.731C463.479,347.694,474.208,337.794,474.649,325.134z M508.102,234.836
			c7.799-9.982,5.944-24.463-4.144-32.344c-10.087-7.881-24.587-6.178-32.386,3.804c-7.799,9.982-5.943,24.463,4.144,32.344
			C485.804,246.521,500.303,244.818,508.102,234.836z M588.265,180.766c12.177-3.492,19.188-16.297,15.659-28.603
			s-16.26-19.45-28.437-15.958s-19.188,16.297-15.659,28.603S576.088,184.257,588.265,180.766z M684.519,183.576
			c11.903,4.333,25.103-1.907,29.481-13.936c4.378-12.029-1.723-25.293-13.626-29.625c-11.903-4.333-25.103,1.907-29.481,13.936
			C666.515,165.979,672.615,179.243,684.519,183.576z M755.295,245.433c10.625,15.753,32.144,19.818,48.062,9.081
			c15.918-10.737,20.21-32.212,9.584-47.964c-10.625-15.752-32.144-19.818-48.062-9.081S744.669,229.68,755.295,245.433z
			 M786.135,334.227c-0.442,12.66,9.57,23.285,22.363,23.731c12.794,0.447,23.523-9.453,23.965-22.113
			c0.442-12.659-9.57-23.284-22.363-23.731C797.306,311.667,786.576,321.567,786.135,334.227z M752.683,424.525
			c-7.799,9.981-5.944,24.463,4.144,32.344s24.587,6.178,32.386-3.804c7.799-9.982,5.944-24.464-4.144-32.345
			S760.481,414.543,752.683,424.525z M672.52,478.596c-12.177,3.491-19.188,16.297-15.659,28.603
			c3.528,12.305,16.26,19.45,28.437,15.958c12.177-3.491,19.188-16.297,15.659-28.603
			C697.428,482.249,684.696,475.104,672.52,478.596z M576.266,475.785c-11.903-4.332-25.103,1.907-29.48,13.937
			c-4.379,12.028,1.722,25.293,13.625,29.625c11.904,4.333,25.103-1.907,29.48-13.936
			C594.27,493.382,588.169,480.118,576.266,475.785z"/>
	</g>
</g>
</svg>
